<svg width="60" height="60" viewBox="0 0 60 60" fill="none" xmlns="http://www.w3.org/2000/svg">
<path d="M54.2252 17.4438C55.0258 18.5777 55.206 19.8608 54.7656 21.2931L46.509 48.3276C46.1287 49.6007 45.3631 50.67 44.2121 51.5353C43.0612 52.4007 41.8352 52.8333 40.5342 52.8333H12.8219C11.2807 52.8333 9.7945 52.3012 8.36335 51.2369C6.9322 50.1727 5.9364 48.8647 5.37595 47.313C4.89557 45.9802 4.87555 44.717 5.31591 43.5234C5.31591 43.4439 5.34593 43.1753 5.40598 42.7178C5.46603 42.2602 5.50606 41.8922 5.52607 41.6137C5.54609 41.4546 5.51607 41.2407 5.436 40.9722C5.35594 40.7036 5.32591 40.5097 5.34593 40.3903C5.38596 40.1715 5.46603 39.9626 5.58612 39.7637C5.70622 39.5647 5.87135 39.331 6.08152 39.0624C6.29169 38.7939 6.45682 38.5601 6.57692 38.3612C7.03729 37.6053 7.48765 36.6952 7.928 35.6309C8.36836 34.5666 8.6686 33.6565 8.82873 32.9006C8.88878 32.7017 8.89378 32.4033 8.84374 32.0054C8.7937 31.6076 8.78869 31.3291 8.82873 31.1699C8.88878 30.9511 9.05891 30.6726 9.33914 30.3344C9.61936 29.9962 9.7895 29.7675 9.84955 29.6481C10.2699 28.932 10.6902 28.0169 11.1106 26.9029C11.5309 25.7889 11.7811 24.8937 11.8612 24.2173C11.8812 24.0383 11.8562 23.72 11.7861 23.2625C11.716 22.8049 11.721 22.5264 11.8011 22.427C11.8812 22.1684 12.1014 21.865 12.4616 21.5169C12.8219 21.1687 13.0421 20.945 13.1222 20.8455C13.5025 20.3283 13.9278 19.4878 14.3982 18.3241C14.8686 17.1603 15.1438 16.2005 15.2239 15.4446C15.2439 15.2854 15.2139 15.0318 15.1338 14.6836C15.0537 14.3355 15.0337 14.0719 15.0737 13.8929C15.1138 13.7338 15.2038 13.5547 15.344 13.3558C15.4841 13.1569 15.6642 12.9281 15.8844 12.6695C16.1046 12.4109 16.2747 12.202 16.3948 12.0429C16.5549 11.8041 16.7201 11.5008 16.8902 11.1328C17.0603 10.7647 17.2105 10.4166 17.3406 10.0884C17.4707 9.76015 17.6308 9.40207 17.8209 9.01416C18.0111 8.62625 18.2063 8.30796 18.4064 8.0593C18.6066 7.81064 18.8718 7.5769 19.2021 7.35807C19.5323 7.13925 19.8926 7.02487 20.2829 7.01492C20.6732 7.00497 21.1486 7.05968 21.7091 7.17904L21.679 7.26855C22.4397 7.08952 22.9501 7 23.2103 7H46.0586C47.5398 7 48.6807 7.557 49.4814 8.67101C50.282 9.78501 50.4622 11.0781 50.0218 12.5501L41.7952 39.5846C41.0746 41.9519 40.359 43.4787 39.6485 44.165C38.9379 44.8513 37.6519 45.1944 35.7904 45.1944H9.69943C9.15899 45.1944 8.77869 45.3436 8.55851 45.642C8.33833 45.9603 8.32832 46.388 8.52849 46.9251C9.00887 48.3176 10.45 49.0139 12.852 49.0139H40.5642C41.1447 49.0139 41.7051 48.8597 42.2456 48.5514C42.786 48.243 43.1363 47.8303 43.2964 47.313L52.3036 17.8615C52.4438 17.4239 52.4938 16.857 52.4538 16.1607C53.2144 16.4591 53.8048 16.8868 54.2252 17.4438ZM22.2795 17.5035C22.1995 17.7621 22.2195 17.9859 22.3396 18.1749C22.4597 18.3638 22.6598 18.4583 22.9401 18.4583H41.1947C41.4549 18.4583 41.7101 18.3638 41.9603 18.1749C42.2105 17.9859 42.3757 17.7621 42.4557 17.5035L43.0862 15.5937C43.1663 15.3351 43.1463 15.1113 43.0262 14.9224C42.9061 14.7334 42.7059 14.6389 42.4257 14.6389H24.171C23.9108 14.6389 23.6556 14.7334 23.4054 14.9224C23.1552 15.1113 22.9901 15.3351 22.91 15.5937L22.2795 17.5035ZM19.7875 25.1424C19.7075 25.401 19.7275 25.6248 19.8476 25.8137C19.9677 26.0027 20.1678 26.0972 20.4481 26.0972H38.7027C38.9629 26.0972 39.2181 26.0027 39.4683 25.8137C39.7185 25.6248 39.8837 25.401 39.9637 25.1424L40.5942 23.2326C40.6743 22.974 40.6543 22.7502 40.5342 22.5613C40.4141 22.3723 40.2139 22.2778 39.9337 22.2778H21.679C21.4188 22.2778 21.1636 22.3723 20.9134 22.5613C20.6632 22.7502 20.4981 22.974 20.418 23.2326L19.7875 25.1424Z" fill="#E3D1EE"/>
</svg>
