<svg width="60" height="60" viewBox="0 0 60 60" fill="none" xmlns="http://www.w3.org/2000/svg">
<path d="M47.3984 5C47.9076 5 48.3945 5.09914 48.8594 5.29742C49.5898 5.58383 50.1709 6.03547 50.6025 6.65235C51.0342 7.26922 51.25 7.95219 51.25 8.70126V51.2987C51.25 52.0478 51.0342 52.7308 50.6025 53.3477C50.1709 53.9645 49.5898 54.4162 48.8594 54.7026C48.4388 54.8788 47.9518 54.967 47.3984 54.967C46.3359 54.967 45.4173 54.6145 44.6426 53.9095L32.5927 42.3785C31.1427 40.991 28.8573 40.991 27.4073 42.3785L15.3574 53.9095C14.5605 54.6365 13.6419 55 12.6016 55C12.0924 55 11.6055 54.9009 11.1406 54.7026C10.4102 54.4162 9.8291 53.9645 9.39746 53.3477C8.96582 52.7308 8.75 52.0478 8.75 51.2987V8.70126C8.75 7.95219 8.96582 7.26922 9.39746 6.65235C9.8291 6.03547 10.4102 5.58383 11.1406 5.29742C11.6055 5.09914 12.0924 5 12.6016 5H47.3984Z" fill="#E3D1EE"/>
</svg>
