<svg width="60" height="60" viewBox="0 0 60 60" fill="none" xmlns="http://www.w3.org/2000/svg">
<path d="M46.7969 24.7266C46.7969 24.1189 46.6016 23.6198 46.2109 23.2292L43.2487 20.2995C42.8364 19.8872 42.3481 19.681 41.7839 19.681C41.2196 19.681 40.7313 19.8872 40.319 20.2995L28.452 32.1374C27.6706 32.9168 26.4057 32.9161 25.6253 32.1357L19.681 26.1914C19.2687 25.7791 18.7804 25.5729 18.2161 25.5729C17.6519 25.5729 17.1636 25.7791 16.7513 26.1914L13.7891 29.1211C13.3984 29.5117 13.2031 30.0108 13.2031 30.6185C13.2031 31.2044 13.3984 31.6927 13.7891 32.0833L25.5729 43.8672C25.9852 44.2795 26.4735 44.4857 27.0378 44.4857C27.6237 44.4857 28.1228 44.2795 28.5352 43.8672L46.2109 26.1914C46.6016 25.8008 46.7969 25.3125 46.7969 24.7266ZM55 30C55 34.5356 53.8824 38.7185 51.6471 42.5488C49.4119 46.3791 46.3791 49.4119 42.5488 51.6471C38.7185 53.8824 34.5356 55 30 55C25.4644 55 21.2815 53.8824 17.4512 51.6471C13.6209 49.4119 10.5881 46.3791 8.35286 42.5488C6.11762 38.7185 5 34.5356 5 30C5 25.4644 6.11762 21.2815 8.35286 17.4512C10.5881 13.6209 13.6209 10.5881 17.4512 8.35286C21.2815 6.11762 25.4644 5 30 5C34.5356 5 38.7185 6.11762 42.5488 8.35286C46.3791 10.5881 49.4119 13.6209 51.6471 17.4512C53.8824 21.2815 55 25.4644 55 30Z" fill="#E3D1EE"/>
</svg>
