<svg width="60" height="60" viewBox="0 0 60 60" fill="none" xmlns="http://www.w3.org/2000/svg">
<path d="M34.5898 46.2435L37.9102 42.9232C38.3225 42.5108 38.5286 42.0226 38.5286 41.4583C38.5286 40.8941 38.3225 40.4058 37.9102 39.9935L30.038 32.1213C28.8664 30.9497 28.8664 29.0503 30.038 27.8787L37.9102 20.0065C38.3225 19.5942 38.5286 19.1059 38.5286 18.5417C38.5286 17.9774 38.3225 17.4891 37.9102 17.0768L34.5898 13.7565C34.1775 13.3442 33.6892 13.138 33.125 13.138C32.5608 13.138 32.0725 13.3442 31.6602 13.7565L16.8815 28.5352C16.4692 28.9475 16.263 29.4358 16.263 30C16.263 30.5642 16.4692 31.0525 16.8815 31.4648L31.6602 46.2435C32.0725 46.6558 32.5608 46.862 33.125 46.862C33.6892 46.862 34.1775 46.6558 34.5898 46.2435ZM55 30C55 34.5356 53.8824 38.7185 51.6471 42.5488C49.4119 46.3791 46.3791 49.4119 42.5488 51.6471C38.7185 53.8824 34.5356 55 30 55C25.4644 55 21.2815 53.8824 17.4512 51.6471C13.6209 49.4119 10.5881 46.3791 8.35286 42.5488C6.11762 38.7185 5 34.5356 5 30C5 25.4644 6.11762 21.2815 8.35286 17.4512C10.5881 13.6209 13.6209 10.5881 17.4512 8.35286C21.2815 6.11762 25.4644 5 30 5C34.5356 5 38.7185 6.11762 42.5488 8.35286C46.3791 10.5881 49.4119 13.6209 51.6471 17.4512C53.8824 21.2815 55 25.4644 55 30Z" fill="#E3D1EE"/>
</svg>
