<svg width="60" height="60" viewBox="0 0 60 60" fill="none" xmlns="http://www.w3.org/2000/svg">
<path d="M38.3333 30C38.3333 27.6997 37.5195 25.7357 35.8919 24.1081C34.2643 22.4805 32.3003 21.6667 30 21.6667C27.6997 21.6667 25.7357 22.4805 24.1081 24.1081C22.4805 25.7357 21.6667 27.6997 21.6667 30C21.6667 32.3003 22.4805 34.2643 24.1081 35.8919C25.7357 37.5195 27.6997 38.3333 30 38.3333C32.3003 38.3333 34.2643 37.5195 35.8919 35.8919C37.5195 34.2643 38.3333 32.3003 38.3333 30ZM55 26.4518V33.6784C55 33.9388 54.9132 34.1884 54.7396 34.4271C54.566 34.6658 54.349 34.8069 54.0885 34.8503L48.0664 35.7617C47.6541 36.9336 47.2309 37.921 46.7969 38.724C47.5564 39.809 48.7174 41.3064 50.2799 43.2161C50.497 43.4766 50.6055 43.7478 50.6055 44.0299C50.6055 44.3121 50.5078 44.5616 50.3125 44.7786C49.7266 45.5816 48.6523 46.7535 47.0898 48.2943C45.5273 49.8351 44.5074 50.6055 44.0299 50.6055C43.7695 50.6055 43.4874 50.5078 43.1836 50.3125L38.6914 46.7969C37.7365 47.296 36.7491 47.7083 35.7292 48.0339C35.3819 50.9852 35.0673 53.0035 34.7852 54.0885C34.6332 54.6962 34.2426 55 33.6133 55H26.3867C26.0829 55 25.8171 54.9078 25.5892 54.7233C25.3613 54.5388 25.2365 54.3056 25.2148 54.0234L24.3034 48.0339C23.24 47.6866 22.2635 47.2852 21.3737 46.8294L16.7839 50.3125C16.5668 50.5078 16.2956 50.6055 15.9701 50.6055C15.6662 50.6055 15.395 50.4861 15.1562 50.2474C12.4219 47.7734 10.6315 45.9505 9.78516 44.7786C9.63325 44.5616 9.55729 44.3121 9.55729 44.0299C9.55729 43.7695 9.6441 43.52 9.81771 43.2812C10.1432 42.8255 10.6966 42.1039 11.4779 41.1165C12.2591 40.1291 12.8451 39.3641 13.2357 38.8216C12.6497 37.7365 12.2049 36.6623 11.901 35.599L5.94401 34.7201C5.66189 34.6766 5.43403 34.541 5.26042 34.3131C5.08681 34.0853 5 33.8303 5 33.5482V26.3216C5 26.0612 5.08681 25.8116 5.26042 25.5729C5.43403 25.3342 5.64019 25.1931 5.87891 25.1497L11.9336 24.2383C12.2374 23.24 12.6606 22.2418 13.2031 21.2435C12.3351 20.0065 11.174 18.5091 9.72005 16.7513C9.50304 16.4909 9.39453 16.2305 9.39453 15.9701C9.39453 15.753 9.49219 15.5035 9.6875 15.2214C10.2517 14.4401 11.3205 13.2737 12.8939 11.722C14.4672 10.1704 15.4926 9.39453 15.9701 9.39453C16.2522 9.39453 16.5343 9.50304 16.8164 9.72005L21.3086 13.2031C22.2635 12.704 23.2509 12.2917 24.2708 11.9661C24.6181 9.01476 24.9327 6.99653 25.2148 5.91146C25.3668 5.30382 25.7574 5 26.3867 5H33.6133C33.9171 5 34.1829 5.09223 34.4108 5.27669C34.6387 5.46115 34.7635 5.69444 34.7852 5.97656L35.6966 11.9661C36.76 12.3134 37.7365 12.7148 38.6263 13.1706L43.2487 9.6875C43.444 9.49219 43.7044 9.39453 44.0299 9.39453C44.3121 9.39453 44.5833 9.50304 44.8437 9.72005C47.6432 12.3025 49.4336 14.1471 50.2148 15.2539C50.3668 15.4275 50.4427 15.6662 50.4427 15.9701C50.4427 16.2305 50.3559 16.48 50.1823 16.7187C49.8568 17.1745 49.3034 17.896 48.5221 18.8835C47.7409 19.8709 47.1549 20.6359 46.7643 21.1784C47.3286 22.2635 47.7734 23.3268 48.099 24.3685L54.056 25.2799C54.3381 25.3233 54.566 25.459 54.7396 25.6868C54.9132 25.9147 55 26.1697 55 26.4518Z" fill="#E3D1EE"/>
</svg>
