<svg width="60" height="60" viewBox="0 0 60 60" fill="none" xmlns="http://www.w3.org/2000/svg">
<path d="M32.4935 44.6875V49.0625C32.4935 49.6549 32.2873 50.1676 31.875 50.6006C31.4627 51.0335 30.9744 51.25 30.4102 51.25H7.08333C6.5191 51.25 6.03082 51.0335 5.61849 50.6006C5.20616 50.1676 5 49.6549 5 49.0625V44.6875C5 44.0951 5.20616 43.5824 5.61849 43.1494C6.03082 42.7165 6.5191 42.5 7.08333 42.5H30.4102C30.9744 42.5 31.4627 42.7165 31.875 43.1494C32.2873 43.5824 32.4935 44.0951 32.4935 44.6875ZM55 27.1875V31.5625C55 32.1549 54.7938 32.6676 54.3815 33.1006C53.9692 33.5335 53.4809 33.75 52.9167 33.75H7.08333C6.5191 33.75 6.03082 33.5335 5.61849 33.1006C5.20616 32.6676 5 32.1549 5 31.5625V27.1875C5 26.5951 5.20616 26.0824 5.61849 25.6494C6.03082 25.2165 6.5191 25 7.08333 25H52.9167C53.4809 25 53.9692 25.2165 54.3815 25.6494C54.7938 26.0824 55 26.5951 55 27.1875ZM55 9.6875V14.0625C55 14.6549 54.7938 15.1676 54.3815 15.6006C53.9692 16.0335 53.4809 16.25 52.9167 16.25H7.08333C6.5191 16.25 6.03082 16.0335 5.61849 15.6006C5.20616 15.1676 5 14.6549 5 14.0625V9.6875C5 9.09505 5.20616 8.58236 5.61849 8.14941C6.03082 7.71647 6.5191 7.5 7.08333 7.5H52.9167C53.4809 7.5 53.9692 7.71647 54.3815 8.14941C54.7938 8.58236 55 9.09505 55 9.6875Z" fill="#E3D1EE"/>
</svg>
