<svg width="60" height="60" viewBox="0 0 60 60" fill="none" xmlns="http://www.w3.org/2000/svg">
<path d="M55 45.9375V50.3125C55 50.9049 54.7938 51.4176 54.3815 51.8506C53.9692 52.2835 53.4809 52.5 52.9167 52.5H7.08333C6.5191 52.5 6.03082 52.2835 5.61849 51.8506C5.20616 51.4176 5 50.9049 5 50.3125V45.9375C5 45.3451 5.20616 44.8324 5.61849 44.3994C6.03082 43.9665 6.5191 43.75 7.08333 43.75H52.9167C53.4809 43.75 53.9692 43.9665 54.3815 44.3994C54.7938 44.8324 55 45.3451 55 45.9375ZM55 28.4375V32.8125C55 33.4049 54.7938 33.9176 54.3815 34.3506C53.9692 34.7835 53.4809 35 52.9167 35H7.08333C6.5191 35 6.03082 34.7835 5.61849 34.3506C5.20616 33.9176 5 33.4049 5 32.8125V28.4375C5 27.8451 5.20616 27.3324 5.61849 26.8994C6.03082 26.4665 6.5191 26.25 7.08333 26.25H52.9167C53.4809 26.25 53.9692 26.4665 54.3815 26.8994C54.7938 27.3324 55 27.8451 55 28.4375ZM55 10.9375V15.3125C55 15.9049 54.7938 16.4176 54.3815 16.8506C53.9692 17.2835 53.4809 17.5 52.9167 17.5H7.08333C6.5191 17.5 6.03082 17.2835 5.61849 16.8506C5.20616 16.4176 5 15.9049 5 15.3125V10.9375C5 10.3451 5.20616 9.83236 5.61849 9.39941C6.03082 8.96647 6.5191 8.75 7.08333 8.75H52.9167C53.4809 8.75 53.9692 8.96647 54.3815 9.39941C54.7938 9.83236 55 10.3451 55 10.9375Z" fill="#E3D1EE"/>
</svg>
