<svg width="60" height="60" viewBox="0 0 60 60" fill="none" xmlns="http://www.w3.org/2000/svg">
<path d="M55 27.9461V32.0539C55 33.1878 54.632 34.156 53.8961 34.9583C53.1601 35.7606 52.2034 36.1617 51.0258 36.1617H32.1294C30.3218 36.1617 29.4416 38.3695 30.7534 39.6132L37.0652 45.5969C37.9257 46.3671 38.356 47.3299 38.356 48.4852C38.356 49.6406 37.9257 50.6033 37.0652 51.3736L34.5177 53.8126C33.6798 54.6042 32.6608 55 31.4606 55C30.2831 55 29.2527 54.6042 28.3696 53.8126L6.25679 32.8883C5.41893 32.0967 5 31.1339 5 30C5 28.8875 5.41893 27.914 6.25679 27.0796L28.3696 6.21951C29.2301 5.4065 30.2604 5 31.4606 5C32.6381 5 33.6572 5.4065 34.5177 6.21951L37.0652 8.59435C37.9257 9.40736 38.356 10.3808 38.356 11.5148C38.356 12.6487 37.9257 13.6222 37.0652 14.4352L30.7683 20.3845C29.4532 21.627 30.3325 23.8383 32.1418 23.8383H51.0258C52.2034 23.8383 53.1601 24.2394 53.8961 25.0417C54.632 25.844 55 26.8122 55 27.9461Z" fill="#E3D1EE"/>
</svg>
