<svg width="60" height="60" viewBox="0 0 60 60" fill="none" xmlns="http://www.w3.org/2000/svg">
<path d="M39.6154 26.1538C39.6154 22.4479 38.2983 19.2778 35.6641 16.6436C33.0298 14.0094 29.8598 12.6923 26.1538 12.6923C22.4479 12.6923 19.2778 14.0094 16.6436 16.6436C14.0094 19.2778 12.6923 22.4479 12.6923 26.1538C12.6923 29.8598 14.0094 33.0298 16.6436 35.6641C19.2778 38.2983 22.4479 39.6154 26.1538 39.6154C29.8598 39.6154 33.0298 38.2983 35.6641 35.6641C38.2983 33.0298 39.6154 29.8598 39.6154 26.1538ZM55 51.1538C55 52.1955 54.6194 53.097 53.8582 53.8582C53.097 54.6194 52.1955 55 51.1538 55C50.0721 55 49.1707 54.6194 48.4495 53.8582L38.143 43.5817C34.5573 46.0657 30.5609 47.3077 26.1538 47.3077C23.2893 47.3077 20.5499 46.7518 17.9357 45.64C15.3215 44.5282 13.0679 43.0258 11.1749 41.1328C9.28185 39.2398 7.77945 36.9862 6.66767 34.372C5.55589 31.7578 5 29.0184 5 26.1538C5 23.2893 5.55589 20.5499 6.66767 17.9357C7.77945 15.3215 9.28185 13.0679 11.1749 11.1749C13.0679 9.28185 15.3215 7.77945 17.9357 6.66767C20.5499 5.55589 23.2893 5 26.1538 5C29.0184 5 31.7578 5.55589 34.372 6.66767C36.9862 7.77945 39.2398 9.28185 41.1328 11.1749C43.0258 13.0679 44.5282 15.3215 45.64 17.9357C46.7518 20.5499 47.3077 23.2893 47.3077 26.1538C47.3077 30.5609 46.0657 34.5573 43.5817 38.143L53.8882 48.4495C54.6294 49.1907 55 50.0921 55 51.1538Z" fill="#E3D1EE"/>
</svg>
