<svg width="60" height="60" viewBox="0 0 60 60" fill="none" xmlns="http://www.w3.org/2000/svg">
<path d="M27.2306 31.3495C27.2306 31.6083 27.3309 31.857 27.5104 32.0434L42.3732 47.4779C42.7438 47.8627 42.7482 48.4726 42.3653 48.8451C40.4736 50.6852 38.3088 52.1419 35.8711 53.2153C33.1405 54.4177 30.2603 55.0189 27.2306 55.0189C23.1975 55.0189 19.4779 53.9869 16.0719 51.9228C12.6659 49.8587 9.96909 47.0582 7.98145 43.5212C5.99382 39.9842 5 36.1215 5 31.9333C5 27.745 5.99382 23.8823 7.98145 20.3453C9.96909 16.8083 12.6659 14.0078 16.0719 11.9437C19.1945 10.0514 22.5807 9.02648 26.2304 8.86902C26.7824 8.84521 27.2306 9.29547 27.2306 9.84796V31.3495ZM34.2715 33.6269C33.6605 32.9912 34.111 31.9333 34.9927 31.9333H54.0186C54.5711 31.9333 55.0211 32.3814 54.9992 32.9335C54.889 35.715 54.3167 38.3725 53.2822 40.906C52.2583 43.4136 50.8721 45.6431 49.1238 47.5943C48.7475 48.0144 48.0962 48.0096 47.7054 47.603L34.2715 33.6269ZM53.1473 27.0853C53.1685 27.6374 52.7185 28.0856 52.166 28.0856H31.9361C31.3836 28.0856 30.9357 27.6378 30.9357 27.0853V6.00035C30.9357 5.44786 31.384 4.9976 31.936 5.02141C35.5857 5.17887 38.9719 6.20376 42.0945 8.0961C45.5005 10.1602 48.1973 12.9607 50.1849 16.4977C52.0133 19.7514 53.0008 23.2805 53.1473 27.0853Z" fill="#E3D1EE"/>
</svg>
