<svg width="60" height="60" viewBox="0 0 60 60" fill="none" xmlns="http://www.w3.org/2000/svg">
<path d="M55 26.5909V33.4091C55 34.3561 54.6686 35.161 54.0057 35.8239C53.3428 36.4867 52.5379 36.8182 51.5909 36.8182H39.8182C38.1613 36.8182 36.8182 38.1613 36.8182 39.8182V51.5909C36.8182 52.5379 36.4867 53.3428 35.8239 54.0057C35.161 54.6686 34.3561 55 33.4091 55H26.5909C25.6439 55 24.839 54.6686 24.1761 54.0057C23.5133 53.3428 23.1818 52.5379 23.1818 51.5909V39.8182C23.1818 38.1613 21.8387 36.8182 20.1818 36.8182H8.40909C7.46212 36.8182 6.6572 36.4867 5.99432 35.8239C5.33144 35.161 5 34.3561 5 33.4091V26.5909C5 25.6439 5.33144 24.839 5.99432 24.1761C6.6572 23.5133 7.46212 23.1818 8.40909 23.1818H20.1818C21.8387 23.1818 23.1818 21.8387 23.1818 20.1818V8.40909C23.1818 7.46212 23.5133 6.6572 24.1761 5.99432C24.839 5.33144 25.6439 5 26.5909 5H33.4091C34.3561 5 35.161 5.33144 35.8239 5.99432C36.4867 6.6572 36.8182 7.46212 36.8182 8.40909V20.1818C36.8182 21.8387 38.1613 23.1818 39.8182 23.1818H51.5909C52.5379 23.1818 53.3428 23.5133 54.0057 24.1761C54.6686 24.839 55 25.6439 55 26.5909Z" fill="#E3D1EE"/>
</svg>
