<svg width="60" height="60" viewBox="0 0 60 60" fill="none" xmlns="http://www.w3.org/2000/svg">
<path d="M44.5833 32.0833V27.9167C44.5833 27.3524 44.3772 26.8641 43.9648 26.4518C43.5525 26.0395 43.0642 25.8333 42.5 25.8333H34.1667V17.5C34.1667 16.9358 33.9605 16.4475 33.5482 16.0352C33.1358 15.6228 32.6476 15.4167 32.0833 15.4167H27.9167C27.3524 15.4167 26.8641 15.6228 26.4518 16.0352C26.0395 16.4475 25.8333 16.9358 25.8333 17.5V25.8333H17.5C16.9358 25.8333 16.4475 26.0395 16.0352 26.4518C15.6228 26.8641 15.4167 27.3524 15.4167 27.9167V32.0833C15.4167 32.6476 15.6228 33.1358 16.0352 33.5482C16.4475 33.9605 16.9358 34.1667 17.5 34.1667H25.8333V42.5C25.8333 43.0642 26.0395 43.5525 26.4518 43.9648C26.8641 44.3772 27.3524 44.5833 27.9167 44.5833H32.0833C32.6476 44.5833 33.1358 44.3772 33.5482 43.9648C33.9605 43.5525 34.1667 43.0642 34.1667 42.5V34.1667H42.5C43.0642 34.1667 43.5525 33.9605 43.9648 33.5482C44.3772 33.1358 44.5833 32.6476 44.5833 32.0833ZM55 30C55 34.5356 53.8824 38.7185 51.6471 42.5488C49.4119 46.3791 46.3791 49.4119 42.5488 51.6471C38.7185 53.8824 34.5356 55 30 55C25.4644 55 21.2815 53.8824 17.4512 51.6471C13.6209 49.4119 10.5881 46.3791 8.35286 42.5488C6.11762 38.7185 5 34.5356 5 30C5 25.4644 6.11762 21.2815 8.35286 17.4512C10.5881 13.6209 13.6209 10.5881 17.4512 8.35286C21.2815 6.11762 25.4644 5 30 5C34.5356 5 38.7185 6.11762 42.5488 8.35286C46.3791 10.5881 49.4119 13.6209 51.6471 17.4512C53.8824 21.2815 55 25.4644 55 30Z" fill="#E3D1EE"/>
</svg>
