<svg width="60" height="60" viewBox="0 0 60 60" fill="none" xmlns="http://www.w3.org/2000/svg">
<path d="M55 45.2357C55 46.358 54.6072 47.312 53.8216 48.0976L48.0976 53.8216C47.312 54.6072 46.358 55 45.2357 55C44.1134 55 43.1594 54.6072 42.3737 53.8216L32.1213 43.5691C30.9497 42.3976 29.0503 42.3976 27.8787 43.5691L17.6263 53.8216C16.8406 54.6072 15.8866 55 14.7643 55C13.642 55 12.688 54.6072 11.9024 53.8216L6.17845 48.0976C5.39282 47.312 5 46.358 5 45.2357C5 44.1134 5.39282 43.1594 6.17845 42.3737L16.4309 32.1213C17.6024 30.9497 17.6024 29.0503 16.4309 27.8787L6.17845 17.6263C5.39282 16.8406 5 15.8866 5 14.7643C5 13.642 5.39282 12.688 6.17845 11.9024L11.9024 6.17845C12.688 5.39282 13.642 5 14.7643 5C15.8866 5 16.8406 5.39282 17.6263 6.17845L27.8787 16.4309C29.0503 17.6024 30.9497 17.6024 32.1213 16.4309L42.3737 6.17845C43.1594 5.39282 44.1134 5 45.2357 5C46.358 5 47.312 5.39282 48.0976 6.17845L53.8216 11.9024C54.6072 12.688 55 13.642 55 14.7643C55 15.8866 54.6072 16.8406 53.8216 17.6263L43.5691 27.8787C42.3976 29.0503 42.3976 30.9497 43.5691 32.1213L53.8216 42.3737C54.6072 43.1594 55 44.1134 55 45.2357Z" fill="#E3D1EE"/>
</svg>
